<svg width="24" height="24" viewBox="0 0 24 24" fill="none" xmlns="http://www.w3.org/2000/svg">
<path d="M12.0273 0H11.9727C5.36035 0 0 5.36035 0 11.9727V12.0273C0 18.6397 5.36035 24 11.9727 24H12.0273C18.6397 24 24 18.6397 24 12.0273V11.9727C24 5.36035 18.6397 0 12.0273 0Z" fill="#282929"/>
<path d="M15.7134 4.88281H8.28711C6.23547 4.88281 4.56641 6.55187 4.56641 8.60351V15.3975C4.56641 17.4491 6.23547 19.1182 8.28711 19.1182H15.7134C17.765 19.1182 19.4341 17.4491 19.4341 15.3975V8.60351C19.4341 6.55187 17.765 4.88281 15.7134 4.88281ZM5.87895 8.60351C5.87895 7.27583 6.95943 6.19536 8.28711 6.19536H15.7134C17.0411 6.19536 18.1215 7.27583 18.1215 8.60351V15.3975C18.1215 16.7252 17.0411 17.8056 15.7134 17.8056H8.28711C6.95943 17.8056 5.87895 16.7252 5.87895 15.3975V8.60351Z" fill="white"/>
<path d="M11.9999 15.4608C13.9078 15.4608 15.4608 13.9086 15.4608 11.9999C15.4608 10.0912 13.9086 8.53906 11.9999 8.53906C10.0912 8.53906 8.53906 10.0912 8.53906 11.9999C8.53906 13.9086 10.0912 15.4608 11.9999 15.4608ZM11.9999 9.85245C13.1847 9.85245 14.1483 10.816 14.1483 12.0008C14.1483 13.1855 13.1847 14.1491 11.9999 14.1491C10.8152 14.1491 9.85161 13.1855 9.85161 12.0008C9.85161 10.816 10.8152 9.85245 11.9999 9.85245Z" fill="white"/>
<path d="M15.7821 9.09795C16.2958 9.09795 16.7146 8.67993 16.7146 8.16519C16.7146 7.65044 16.2967 7.23242 15.7821 7.23242C15.2675 7.23242 14.8496 7.65044 14.8496 8.16519C14.8496 8.67993 15.2675 9.09795 15.7821 9.09795Z" fill="white"/>
</svg>
