<svg width="75" height="32" viewBox="0 0 75 32" fill="none" xmlns="http://www.w3.org/2000/svg">
<path d="M35.3321 24.4599C34.7053 24.4599 34.1453 24.3151 33.6522 24.0256C33.1591 23.7361 32.7733 23.3503 32.4949 22.8683C32.2165 22.3863 32.0781 21.8518 32.0781 21.2648C32.0781 20.6778 32.2173 20.1409 32.4949 19.6557C32.7725 19.1705 33.1591 18.7824 33.6522 18.4929C34.1453 18.2034 34.7053 18.0586 35.3321 18.0586C35.9588 18.0586 36.5283 18.2034 37.0183 18.4929C37.5074 18.7824 37.8916 19.1705 38.1692 19.6557C38.4468 20.1417 38.586 20.6778 38.586 21.2648C38.586 21.8518 38.4468 22.3871 38.1692 22.8683C37.8908 23.3503 37.5074 23.7361 37.0183 24.0256C36.5291 24.3151 35.9668 24.4599 35.3321 24.4599ZM35.3321 23.0146C35.6685 23.0146 35.962 22.9343 36.2133 22.7736C36.4639 22.613 36.658 22.3998 36.7948 22.1334C36.9316 21.8669 37 21.5774 37 21.264C37 20.9506 36.9316 20.6492 36.7948 20.3827C36.658 20.1163 36.4639 19.9031 36.2133 19.7424C35.9628 19.5818 35.6693 19.5014 35.3321 19.5014C34.9948 19.5014 34.7013 19.5818 34.4508 19.7424C34.2002 19.9031 34.0061 20.1163 33.8693 20.3827C33.7325 20.6492 33.6641 20.9427 33.6641 21.264C33.6641 21.5853 33.7325 21.8669 33.8693 22.1334C34.0061 22.3998 34.2002 22.613 34.4508 22.7736C34.7013 22.9343 34.9948 23.0146 35.3321 23.0146Z" fill="#475952"/>
<path d="M39.1074 24.307V18.1984H40.6696V18.9691L40.7244 18.9827C41.0593 18.3662 41.663 18.0576 42.5379 18.0576C42.9762 18.0576 43.3723 18.1594 43.7246 18.363C44.077 18.5667 44.3554 18.8562 44.559 19.2324C44.7626 19.6086 44.8644 20.0548 44.8644 20.5718V24.3078H43.2784V20.96C43.2784 20.4279 43.1567 20.0421 42.9141 19.8027C42.6716 19.5641 42.3542 19.444 41.9629 19.444C41.6256 19.444 41.3305 19.5633 41.076 19.8027C40.8215 20.0413 40.6942 20.4271 40.6942 20.96V24.3078H39.1082L39.1074 24.307Z" fill="#475952"/>
<path d="M45.5586 24.307V18.1984H47.1207V18.9691L47.1756 18.9827C47.5105 18.3662 48.1142 18.0576 48.9891 18.0576C49.4274 18.0576 49.8235 18.1594 50.1758 18.363C50.5282 18.5667 50.8066 18.8562 51.0102 19.2324C51.2138 19.6086 51.3156 20.0548 51.3156 20.5718V24.3078H49.7296V20.96C49.7296 20.4279 49.6079 20.0421 49.3653 19.8027C49.1227 19.5641 48.8054 19.444 48.414 19.444C48.0768 19.444 47.7817 19.5633 47.5272 19.8027C47.2727 20.0413 47.1454 20.4271 47.1454 20.96V24.3078H45.5594L45.5586 24.307Z" fill="#475952"/>
<path d="M54.9363 24.4599C54.3095 24.4599 53.7575 24.3151 53.2795 24.0256C52.8014 23.7361 52.4316 23.3503 52.1691 22.8683C51.9066 22.3863 51.7754 21.8518 51.7754 21.2648C51.7754 20.6778 51.9122 20.1394 52.1866 19.6494C52.461 19.1602 52.8348 18.7705 53.3081 18.4802C53.7821 18.1907 54.3246 18.0459 54.9355 18.0459C55.5463 18.0459 56.0848 18.1907 56.5509 18.4802C57.017 18.7697 57.3813 19.1594 57.6438 19.6494C57.9062 20.1386 58.0375 20.677 58.0375 21.2648C58.0375 21.3507 58.0335 21.4414 58.0255 21.5353C58.0176 21.6291 58.0057 21.7269 57.9905 21.8288H53.4202C53.5062 22.1891 53.6803 22.4826 53.9428 22.71C54.2053 22.9375 54.5362 23.0505 54.9355 23.0505C55.2799 23.0505 55.5797 22.9725 55.8342 22.8158C56.0888 22.6591 56.2868 22.4635 56.4276 22.2288L57.6613 23.1571C57.4187 23.5412 57.0544 23.8546 56.5684 24.0972C56.0824 24.3398 55.5384 24.4615 54.9355 24.4615L54.9363 24.4599ZM54.9124 19.4084C54.5362 19.4084 54.2148 19.5221 53.9492 19.7488C53.6827 19.9763 53.5069 20.2738 53.4202 20.6412H56.4395C56.3536 20.3048 56.1755 20.0145 55.905 19.7719C55.6346 19.5293 55.3037 19.4076 54.9124 19.4076V19.4084Z" fill="#475952"/>
<path d="M61.5622 24.4594C61.1232 24.4594 60.7143 24.3774 60.3349 24.2128C59.9547 24.0482 59.6199 23.8191 59.3303 23.5256C59.0408 23.2321 58.8149 22.8909 58.6551 22.5035C58.4944 22.1162 58.4141 21.6986 58.4141 21.2524C58.4141 20.6574 58.5533 20.1189 58.8308 19.6369C59.1084 19.1549 59.4926 18.77 59.9818 18.4797C60.4709 18.1901 61.0253 18.0454 61.6441 18.0454C62.2001 18.0374 62.6972 18.1352 63.1363 18.3389C63.5745 18.5425 63.9237 18.8248 64.1822 19.1844L62.9605 20.1826C62.8197 19.971 62.6376 19.8024 62.4141 19.6775C62.1906 19.5526 61.9424 19.4898 61.668 19.4898C61.3307 19.4898 61.0372 19.5701 60.7867 19.7308C60.5362 19.8915 60.3421 20.1046 60.2053 20.3711C60.0685 20.6375 60.0001 20.931 60.0001 21.2524C60.0001 21.5737 60.0724 21.8577 60.2172 22.1273C60.362 22.3977 60.5616 22.6133 60.8161 22.7731C61.0707 22.9338 61.3665 23.0142 61.703 23.0142C62.0084 23.0142 62.2669 22.9457 62.4785 22.8089C62.6901 22.6721 62.8738 22.4979 63.0305 22.2864L64.1814 23.2846C63.8919 23.6528 63.5332 23.9408 63.1068 24.1484C62.6797 24.356 62.1651 24.4594 61.5622 24.4594Z" fill="#475952"/>
<path d="M68.4815 18.1944H67.3433V16.9727H65.7573V18.1944H64.6191V19.7334H65.7573V24.3069H67.3433V19.7334H68.4815V18.1944Z" fill="#475952"/>
<path d="M30.9528 22.1886L30.8836 22.265C30.684 22.4837 30.4565 22.6499 30.2067 22.7589C29.957 22.8679 29.6627 22.9235 29.3326 22.9235C28.8864 22.9235 28.4974 22.8209 28.1769 22.6189C27.8556 22.4161 27.6042 22.1425 27.43 21.8044C27.255 21.4648 27.1668 21.0814 27.1668 20.6662C27.1668 20.251 27.255 19.8661 27.43 19.5225C27.6034 19.1813 27.8532 18.9037 28.1721 18.6977C28.4895 18.4924 28.8697 18.389 29.3016 18.389C29.9069 18.389 30.4191 18.6046 30.8239 19.0285L30.8939 19.1017L32.0576 18.0908L31.9908 18.0104C31.6623 17.6191 31.2773 17.3248 30.847 17.1355C30.4175 16.947 29.8973 16.8516 29.3016 16.8516C28.7392 16.8516 28.2183 16.9518 27.7522 17.1506C27.2861 17.3487 26.8788 17.6263 26.5408 17.9739C26.2028 18.3222 25.9387 18.7311 25.7542 19.19C25.5696 19.6489 25.4766 20.1453 25.4766 20.6662C25.4766 21.1872 25.5736 21.6835 25.7653 22.1385C25.9562 22.5935 26.2274 23.0007 26.5718 23.3491C26.9162 23.6975 27.3258 23.9727 27.788 24.1667C28.2509 24.3616 28.7599 24.4602 29.3016 24.4602C29.9395 24.4602 30.4978 24.3489 30.9616 24.1294C31.4253 23.9098 31.8023 23.6275 32.0823 23.2918L32.1499 23.2115L30.9528 22.1902V22.1886Z" fill="#475952"/>
<path d="M30.9528 12.5734L30.8836 12.6497C30.684 12.8685 30.4565 13.0347 30.2067 13.1437C29.957 13.2526 29.6627 13.3083 29.3326 13.3083C28.8864 13.3083 28.4974 13.2057 28.1769 13.0037C27.8556 12.8009 27.6042 12.5272 27.43 12.1892C27.255 11.8496 27.1668 11.4662 27.1668 11.051C27.1668 10.6358 27.255 10.2508 27.43 9.90724C27.6034 9.56602 27.8532 9.28843 28.1721 9.08242C28.4895 8.87721 28.8697 8.77381 29.3016 8.77381C29.9069 8.77381 30.4191 8.98936 30.8239 9.4133L30.8939 9.48648L32.0576 8.47554L31.9908 8.39521C31.6623 8.00388 31.2773 7.70958 30.847 7.52028C30.4175 7.33177 29.8973 7.23633 29.3016 7.23633C28.7392 7.23633 28.2183 7.33655 27.7522 7.53539C27.2861 7.73344 26.8788 8.01103 26.5408 8.35862C26.2028 8.707 25.9387 9.11583 25.7542 9.57476C25.5696 10.0337 25.4766 10.53 25.4766 11.051C25.4766 11.572 25.5736 12.0683 25.7653 12.5233C25.9562 12.9782 26.2274 13.3855 26.5718 13.7338C26.9162 14.0822 27.3258 14.3574 27.788 14.5515C28.2509 14.7464 28.7599 14.845 29.3016 14.845C29.9395 14.845 30.4978 14.7336 30.9616 14.5141C31.4253 14.2946 31.8023 14.0122 32.0823 13.6766L32.1499 13.5962L30.9528 12.575V12.5734Z" fill="#475952"/>
<path d="M32.8477 14.6914V8.5789H34.3875V9.53177L34.444 9.54132C34.5577 9.2001 34.747 8.93205 35.0103 8.73798C35.3237 8.50732 35.7468 8.4071 36.2797 8.43812V9.93106H36.0562C35.6013 9.93106 35.2179 10.0758 34.9045 10.3661C34.5911 10.6565 34.4345 11.0557 34.4345 11.5648V14.6914H32.8477Z" fill="#475952"/>
<path d="M39.5356 14.8443C38.9088 14.8443 38.3481 14.6996 37.855 14.4093C37.361 14.1197 36.9753 13.7332 36.6969 13.2512C36.4185 12.7692 36.2793 12.2347 36.2793 11.6469C36.2793 11.0591 36.4185 10.5222 36.6969 10.0362C36.9753 9.55025 37.361 9.1621 37.855 8.87258C38.3489 8.58306 38.9088 8.4375 39.5356 8.4375C40.1624 8.4375 40.7327 8.58226 41.2226 8.87258C41.7126 9.16289 42.0968 9.55025 42.3743 10.0362C42.6527 10.5222 42.7919 11.0591 42.7919 11.6469C42.7919 12.2347 42.6527 12.7692 42.3743 13.2512C42.096 13.7332 41.7118 14.1189 41.2226 14.4093C40.7327 14.6988 40.1703 14.8443 39.5356 14.8443ZM39.5356 13.3983C39.8729 13.3983 40.1664 13.318 40.4177 13.1573C40.6682 12.9967 40.8623 12.7835 40.9999 12.517C41.1367 12.2506 41.2059 11.9611 41.2059 11.6469C41.2059 11.3327 41.1375 11.0321 40.9999 10.7656C40.8623 10.4991 40.669 10.286 40.4177 10.1253C40.1671 9.96464 39.8729 9.88431 39.5356 9.88431C39.1984 9.88431 38.9049 9.96464 38.6543 10.1253C38.4038 10.286 38.2097 10.4999 38.0721 10.7656C37.9345 11.0321 37.8661 11.3263 37.8661 11.6469C37.8661 11.9674 37.9345 12.2506 38.0721 12.517C38.2089 12.7835 38.403 12.9975 38.6543 13.1573C38.9049 13.318 39.1992 13.3983 39.5356 13.3983Z" fill="#475952"/>
<path d="M45.4607 14.8446C44.4339 14.8446 43.5876 14.4882 42.9219 13.7748L43.9917 12.7988C44.4387 13.3007 44.9167 13.5513 45.4258 13.5513C45.7002 13.5513 45.9093 13.4908 46.0549 13.3691C46.1997 13.2474 46.272 13.0971 46.272 12.9165C46.272 12.8068 46.2466 12.7129 46.1957 12.6342C46.1448 12.5562 46.039 12.4815 45.8783 12.4107C45.7177 12.3399 45.4767 12.2699 45.1553 12.1991C44.6065 12.0663 44.1993 11.9016 43.9328 11.7052C43.6664 11.5095 43.4898 11.29 43.4039 11.0466C43.3172 10.804 43.2742 10.5526 43.2742 10.2941C43.2742 9.76124 43.4763 9.31661 43.8795 8.96028C44.2828 8.60395 44.8411 8.42578 45.5546 8.42578C46.0485 8.42578 46.4717 8.50055 46.824 8.64928C47.1764 8.79802 47.5097 9.07641 47.823 9.48365L46.6713 10.3657C46.5226 10.1303 46.3556 9.96247 46.1718 9.85986C45.9873 9.75805 45.794 9.70715 45.5896 9.70715C45.3701 9.70715 45.1879 9.7501 45.0432 9.8368C44.8976 9.92349 44.826 10.0603 44.826 10.248C44.826 10.3498 44.873 10.45 44.9668 10.5479C45.0607 10.6457 45.2881 10.7419 45.6485 10.8358C46.2442 10.9845 46.6984 11.1587 47.0118 11.3592C47.3251 11.5588 47.5407 11.7847 47.6584 12.0352C47.7761 12.2858 47.835 12.5642 47.835 12.8696C47.835 13.2458 47.7308 13.5831 47.5232 13.8805C47.3156 14.1788 47.0332 14.4135 46.6769 14.5861C46.3206 14.7587 45.9149 14.8446 45.46 14.8446H45.4607Z" fill="#475952"/>
<path d="M50.5506 14.8446C49.5237 14.8446 48.6775 14.4882 48.0117 13.7748L49.0815 12.7988C49.5285 13.3007 50.0065 13.5513 50.5156 13.5513C50.79 13.5513 50.9992 13.4908 51.1447 13.3691C51.2895 13.2474 51.3619 13.0971 51.3619 12.9165C51.3619 12.8068 51.3364 12.7129 51.2855 12.6342C51.2346 12.5562 51.1288 12.4815 50.9682 12.4107C50.8075 12.3399 50.5665 12.2699 50.2452 12.1991C49.6963 12.0663 49.2891 11.9016 49.0227 11.7052C48.7562 11.5095 48.5796 11.29 48.4937 11.0466C48.407 10.804 48.3641 10.5526 48.3641 10.2941C48.3641 9.76124 48.5661 9.31661 48.9694 8.96028C49.3726 8.60395 49.931 8.42578 50.6444 8.42578C51.1384 8.42578 51.5615 8.50055 51.9139 8.64928C52.2662 8.79802 52.5995 9.07641 52.9129 9.48365L51.7612 10.3657C51.6124 10.1303 51.4454 9.96247 51.2617 9.85986C51.0771 9.75805 50.8839 9.70715 50.6794 9.70715C50.4599 9.70715 50.2778 9.7501 50.133 9.8368C49.9875 9.92349 49.9159 10.0603 49.9159 10.248C49.9159 10.3498 49.9628 10.45 50.0567 10.5479C50.1505 10.6457 50.378 10.7419 50.7383 10.8358C51.334 10.9845 51.7882 11.1587 52.1016 11.3592C52.415 11.5588 52.6305 11.7847 52.7482 12.0352C52.866 12.2858 52.9248 12.5642 52.9248 12.8696C52.9248 13.2458 52.8206 13.5831 52.613 13.8805C52.4054 14.1788 52.1231 14.4135 51.7667 14.5861C51.4104 14.7587 51.0048 14.8446 50.5498 14.8446H50.5506Z" fill="#475952"/>
<path d="M20.8812 20.2979C22.0886 20.3663 22.5666 21.2595 21.9565 22.2855C20.6338 24.5126 17.8571 25.5928 14.6469 25.5928C10.1538 25.5928 6.51172 23.4794 6.51172 19.065C6.51172 17.1235 7.21643 15.061 8.38804 13.3589C9.17308 12.2191 10.2572 12.3185 10.7495 13.6071C11.7072 16.1133 12.7293 18.1193 14.0607 19.0817C15.6086 20.2008 17.675 20.1157 20.8812 20.2979ZM16.3324 12.3742C16.8215 12.0847 17.2057 11.6989 17.4833 11.2169C17.7609 10.7349 17.9001 10.2004 17.9001 9.61343C17.9001 9.02644 17.7609 8.48955 17.4833 8.00436C17.2049 7.51918 16.8215 7.13103 16.3324 6.84151C15.8432 6.55199 15.2809 6.40723 14.6461 6.40723C14.0114 6.40723 13.4594 6.55199 12.9663 6.84151C12.4731 7.13103 12.0874 7.51918 11.809 8.00436C11.5306 8.49034 11.3922 9.02644 11.3922 9.61343C11.3922 10.2004 11.5314 10.7357 11.809 11.2169C12.0866 11.6989 12.4731 12.0847 12.9663 12.3742C13.4594 12.6637 14.0194 12.8085 14.6461 12.8085C15.2729 12.8085 15.8424 12.6637 16.3324 12.3742Z" fill="#475952"/>
</svg>
