<svg width="32" height="32" viewBox="0 0 32 32" fill="none" xmlns="http://www.w3.org/2000/svg">
<g clip-path="url(#clip0_8298_1611)">
<path d="M27 0H5C2.23858 0 0 2.23858 0 5V27C0 29.7614 2.23858 32 5 32H27C29.7614 32 32 29.7614 32 27V5C32 2.23858 29.7614 0 27 0Z" fill="url(#paint0_radial_8298_1611)"/>
<path d="M22.8121 20.4709C24.132 20.5457 24.6536 21.5213 23.9876 22.6433C22.542 25.0772 19.5089 26.2568 16.0005 26.2568C11.0912 26.2568 7.11133 23.9472 7.11133 19.1242C7.11133 17.0032 7.88162 14.7491 9.16144 12.8889C10.0187 11.6432 11.2035 11.7522 11.7411 13.1597C12.7869 15.8979 13.9036 18.0898 15.3592 19.1416C17.0503 20.3639 19.3083 20.2716 22.8121 20.4702V20.4709ZM17.842 11.8131C18.3769 11.4968 18.7961 11.0749 19.0997 10.5486C19.4033 10.0224 19.5551 9.43798 19.5551 8.79674C19.5551 8.1555 19.4033 7.56908 19.0997 7.03817C18.7961 6.50792 18.3762 6.08399 17.842 5.76772C17.307 5.45144 16.6932 5.29297 15.9998 5.29297C15.3064 5.29297 14.7033 5.45144 14.1643 5.76772C13.6254 6.08466 13.2035 6.50792 12.8999 7.03817C12.5963 7.56908 12.4446 8.15483 12.4446 8.79674C12.4446 9.43865 12.5963 10.0224 12.8999 10.5486C13.2035 11.0749 13.6254 11.4968 14.1643 11.8131C14.7033 12.1293 15.3151 12.2878 15.9998 12.2878C16.6845 12.2878 17.307 12.1293 17.842 11.8131Z" fill="#F0F2F1"/>
</g>
<defs>
<radialGradient id="paint0_radial_8298_1611" cx="0" cy="0" r="1" gradientUnits="userSpaceOnUse" gradientTransform="translate(15.8385 8.48862) scale(27.5721)">
<stop stop-color="#475952"/>
<stop offset="1" stop-color="#2A3531"/>
</radialGradient>
<clipPath id="clip0_8298_1611">
<rect width="32" height="32" fill="white"/>
</clipPath>
</defs>
</svg>
