<svg width="24" height="24" viewBox="0 0 24 24" fill="none" xmlns="http://www.w3.org/2000/svg">
<path d="M23.9983 12.0004C23.9983 18.0612 19.5059 23.0717 13.6698 23.8848C13.1242 23.9605 12.5659 24 11.9992 24C11.345 24 10.7026 23.9479 10.0771 23.847C4.36379 22.9271 0 17.9729 0 12.0004C0 5.37294 5.37276 0 12 0C18.6272 0 24 5.37294 24 12.0004H23.9983Z" fill="#282929"/>
<path d="M13.6689 9.63515V12.2493H16.9026L16.3906 15.7707H13.6689V23.884C13.1232 23.9596 12.5649 23.9992 11.9982 23.9992C11.344 23.9992 10.7017 23.947 10.0761 23.8461V15.7707H7.09375V12.2493H10.0761V9.05077C10.0761 7.0664 11.6846 5.45703 13.6697 5.45703V5.45871C13.6756 5.45871 13.6806 5.45703 13.6865 5.45703H16.9034V8.50254H14.8014C14.1767 8.50254 13.6697 9.00957 13.6697 9.63431L13.6689 9.63515Z" fill="white"/>
</svg>
