<svg width="24" height="24" viewBox="0 0 24 24" fill="none" xmlns="http://www.w3.org/2000/svg">
<path d="M12.0273 0H11.9727C5.36035 0 0 5.36035 0 11.9727V12.0273C0 18.6397 5.36035 24 11.9727 24H12.0273C18.6396 24 24 18.6397 24 12.0273V11.9727C24 5.36035 18.6396 0 12.0273 0Z" fill="#282929"/>
<path d="M19.4353 11.7C19.236 10.7961 18.4103 10.21 17.5914 10.3908C17.3122 10.4522 17.0717 10.596 16.8817 10.7927C15.7793 9.99227 14.2742 9.46338 12.5934 9.36332L13.3981 6.01343L15.7852 6.58436C15.8247 7.23685 16.3654 7.75396 17.028 7.75396C17.6906 7.75396 18.2741 7.19565 18.2741 6.50784C18.2741 5.82004 17.7158 5.26172 17.028 5.26172C16.5294 5.26172 16.0997 5.55517 15.9013 5.97895L13.3115 5.35926C13.108 5.31049 12.9037 5.43577 12.8541 5.63925L11.9636 9.34651C10.0886 9.3566 8.3968 9.89894 7.18263 10.7675C7.12293 10.712 7.05903 10.6607 6.98925 10.6153C6.2821 10.1638 5.30504 10.4303 4.80727 11.2098C4.30949 11.9901 4.4785 12.9882 5.18565 13.4397C5.22769 13.4666 5.27057 13.4901 5.3143 13.512C5.28571 13.6861 5.27057 13.8635 5.27057 14.0426C5.27057 16.6366 8.29002 18.7395 12.0149 18.7395C15.7398 18.7395 18.7593 16.6366 18.7593 14.0426C18.7593 13.861 18.7433 13.6819 18.7139 13.5061C19.2882 13.1723 19.601 12.445 19.437 11.7H19.4353ZM8.55657 12.9545C8.55657 12.3634 9.03584 11.8841 9.62695 11.8841C10.2181 11.8841 10.6973 12.3634 10.6973 12.9545C10.6973 13.5456 10.2181 14.0249 9.62695 14.0249C9.03584 14.0249 8.55657 13.5456 8.55657 12.9545ZM14.5013 16.3339C14.1725 16.6324 13.2644 17.3286 11.9351 17.3412C11.9233 17.3412 11.9107 17.3412 11.8989 17.3412C10.5519 17.3412 9.63199 16.6382 9.2965 16.3339C9.18887 16.2363 9.1813 16.0698 9.27884 15.963C9.37638 15.8554 9.54287 15.8479 9.64965 15.9454C9.94142 16.2111 10.7478 16.8274 11.93 16.8165C13.0794 16.8056 13.8639 16.2044 14.1481 15.9462C14.2557 15.8487 14.4214 15.8563 14.5189 15.9639C14.6165 16.0715 14.6089 16.2372 14.5013 16.3347V16.3339ZM14.3718 14.0249C13.7807 14.0249 13.3014 13.5456 13.3014 12.9545C13.3014 12.3634 13.7807 11.8841 14.3718 11.8841C14.9629 11.8841 15.4422 12.3634 15.4422 12.9545C15.4422 13.5456 14.9629 14.0249 14.3718 14.0249Z" fill="white"/>
</svg>
