<svg width="24" height="24" viewBox="0 0 24 24" fill="none" xmlns="http://www.w3.org/2000/svg">
<path d="M12.0273 0H11.9727C5.36035 0 0 5.36035 0 11.9727V12.0273C0 18.6397 5.36035 24 11.9727 24H12.0273C18.6397 24 24 18.6397 24 12.0273V11.9727C24 5.36035 18.6397 0 12.0273 0Z" fill="#282929"/>
<path d="M17.801 8.68341V10.9495C17.4049 10.9108 16.8903 10.8208 16.3211 10.6123C15.5778 10.3399 15.0245 9.96737 14.6621 9.67896V14.259L14.6529 14.2447C14.6588 14.3355 14.6621 14.428 14.6621 14.5213C14.6621 16.7958 12.8114 18.6473 10.5361 18.6473C8.26084 18.6473 6.41016 16.7958 6.41016 14.5213C6.41016 12.2469 8.26084 10.3945 10.5361 10.3945C10.759 10.3945 10.9776 10.4122 11.1912 10.4466V12.6799C10.986 12.6068 10.7657 12.5672 10.5361 12.5672C9.45903 12.5672 8.58204 13.4434 8.58204 14.5213C8.58204 15.5993 9.45903 16.4754 10.5361 16.4754C11.6133 16.4754 12.4902 15.5985 12.4902 14.5213C12.4902 14.481 12.4894 14.4406 12.4869 14.4003V5.5H14.7513C14.7597 5.69171 14.7672 5.88511 14.7756 6.07682C14.7908 6.45435 14.9253 6.81675 15.1599 7.11357C15.4349 7.46251 15.841 7.8678 16.4111 8.19152C16.945 8.49338 17.4461 8.62371 17.801 8.68509V8.68341Z" fill="white"/>
</svg>
