<svg width="24" height="24" viewBox="0 0 24 24" fill="none" xmlns="http://www.w3.org/2000/svg">
<path d="M23.9983 12.0004C23.9983 18.0612 19.5059 23.0717 13.6698 23.8848C13.1242 23.9605 12.5659 24 11.9992 24C11.345 24 10.7026 23.9479 10.0771 23.847C4.36379 22.9271 0 17.9729 0 12.0004C0 5.37294 5.37276 0 12 0C18.6272 0 24 5.37294 24 12.0004H23.9983Z" fill="#282929"/>
<path d="M4.86651 5.29297L10.4007 12.6923L4.83203 18.7085H6.08568L10.9615 13.4415L14.9007 18.7085H19.1661L13.3208 10.8929L18.5044 5.29297H17.2508L12.7608 10.1438L9.13276 5.29297H4.86734H4.86651ZM6.70955 6.21621H8.66864L17.3214 17.7853H15.3623L6.70955 6.21621Z" fill="white"/>
</svg>
