<svg width="24" height="24" viewBox="0 0 24 24" fill="none" xmlns="http://www.w3.org/2000/svg">
<path d="M24 12C24 5.37258 18.6274 0 12 0C5.37259 0 0 5.37258 0 12C0 18.6274 5.37259 24 12 24C18.6274 24 24 18.6274 24 12Z" fill="#282929"/>
<path d="M19.5567 9.51243C19.4623 8.6009 19.259 7.59324 18.5111 7.06369C17.9318 6.65304 17.1704 6.63786 16.4595 6.6387C14.9569 6.6387 13.4534 6.64123 11.9508 6.64208C10.5055 6.64376 9.06017 6.64461 7.61488 6.64629C7.01113 6.64629 6.42424 6.59991 5.86349 6.86131C5.382 7.08561 5.00508 7.51229 4.77825 7.98703C4.46373 8.64728 4.39796 9.39522 4.36001 10.1255C4.29002 11.4552 4.29761 12.7884 4.38109 14.1173C4.44265 15.087 4.59864 16.1588 5.34828 16.7769C6.01274 17.3241 6.95041 17.3511 7.81219 17.3519C10.5476 17.3545 13.2839 17.357 16.0202 17.3587C16.371 17.3595 16.7369 17.3528 17.0945 17.314C17.7977 17.2381 18.4681 17.0366 18.9201 16.5154C19.3762 15.9901 19.4935 15.259 19.5626 14.5667C19.7313 12.887 19.7296 11.1913 19.5567 9.51243ZM10.3689 14.3534V9.64397L14.4467 11.9983L10.3689 14.3534Z" fill="white"/>
</svg>
