<svg width="48" height="48" viewBox="0 0 48 48" fill="none" xmlns="http://www.w3.org/2000/svg">
<rect width="48" height="48" rx="24" fill="white"/>
<path d="M32.5146 29.5886C34.1646 29.6822 34.8165 30.9016 33.984 32.3042C32.177 35.3466 28.3857 36.8209 24.0001 36.8209C17.8635 36.8209 12.8887 33.934 12.8887 27.9052C12.8887 25.254 13.8515 22.4364 15.4513 20.1112C16.5228 18.554 18.0039 18.6903 18.6759 20.4497C19.9831 23.8724 21.379 26.6122 23.1986 27.9269C25.3124 29.4548 28.1349 29.3395 32.5146 29.5877V29.5886ZM26.302 18.7663C26.9706 18.371 27.4947 17.8436 27.8741 17.1858C28.2536 16.528 28.4433 15.7975 28.4433 14.9959C28.4433 14.1944 28.2536 13.4614 27.8741 12.7977C27.4947 12.1349 26.9698 11.605 26.302 11.2096C25.6333 10.8143 24.866 10.6162 23.9993 10.6162C23.1325 10.6162 22.3786 10.8143 21.7049 11.2096C21.0313 11.6058 20.5039 12.1349 20.1244 12.7977C19.7449 13.4614 19.5552 14.1935 19.5552 14.9959C19.5552 15.7983 19.7449 16.528 20.1244 17.1858C20.5039 17.8436 21.0313 18.371 21.7049 18.7663C22.3786 19.1617 23.1434 19.3598 23.9993 19.3598C24.8552 19.3598 25.6333 19.1617 26.302 18.7663Z" fill="#475952"/>
</svg>
